<svg width="18" height="22" viewBox="0 0 18 22" fill="none" xmlns="http://www.w3.org/2000/svg">
    <path d="M9.89575 1.91449C11.3412 0.00928822 13.3508 0 13.3508 0C13.3508 0 13.6497 1.79122 12.2137 3.51673C10.6804 5.35919 8.93758 5.05771 8.93758 5.05771C8.93758 5.05771 8.61032 3.60867 9.89575 1.91449ZM9.12143 6.31245C9.86507 6.31245 11.2452 5.29024 13.0417 5.29024C16.134 5.29024 17.3505 7.49061 17.3505 7.49061C17.3505 7.49061 14.9712 8.70707 14.9712 11.6588C14.9712 14.9885 17.9351 16.1361 17.9351 16.1361C17.9351 16.1361 15.8632 21.9677 13.0647 21.9677C11.7793 21.9677 10.78 21.1015 9.42574 21.1015C8.04559 21.1015 6.67599 22 5.78396 22C3.22847 22.0001 0 16.4682 0 12.0215C0 7.64655 2.73269 5.35153 5.29584 5.35153C6.96212 5.35153 8.25517 6.31245 9.12143 6.31245Z" fill="#999999"/>
</svg>
