<svg width="20" height="20" viewBox="0 0 20 20" fill="none" xmlns="http://www.w3.org/2000/svg">
    <path d="M19.6 10.2222C19.6 9.39995 19.5333 8.79995 19.3889 8.17773H10V11.8888H15.5111C15.4 12.8111 14.8 14.1999 13.4666 15.1332L13.448 15.2575L16.4165 17.5572L16.6222 17.5777C18.5111 15.8333 19.6 13.2666 19.6 10.2222Z" fill="#4285F4"/>
    <path d="M10 20C12.7 20 14.9666 19.1111 16.6222 17.5778L13.4666 15.1333C12.6222 15.7222 11.4889 16.1333 10 16.1333C7.35557 16.1333 5.11115 14.3889 4.31107 11.9778L4.1938 11.9877L1.10701 14.3766L1.06664 14.4889C2.71107 17.7555 6.08886 20 10 20Z" fill="#34A853"/>
    <path d="M4.31107 11.9778C4.09996 11.3555 3.97779 10.6888 3.97779 9.99997C3.97779 9.31104 4.09996 8.6444 4.29996 8.02219L4.29437 7.88967L1.1689 5.4624L1.06664 5.51104C0.388893 6.86662 0 8.38887 0 9.99997C0 11.6111 0.388893 13.1333 1.06664 14.4888L4.31107 11.9778Z" fill="#FBBC05"/>
    <path d="M10 3.86664C11.8777 3.86664 13.1444 4.67775 13.8666 5.35557L16.6889 2.6C14.9556 0.988893 12.7 0 10 0C6.08886 0 2.71107 2.24443 1.06664 5.51107L4.29996 8.02221C5.11115 5.61111 7.35557 3.86664 10 3.86664Z" fill="#EB4335"/>
</svg>
