<svg width="34" height="34" viewBox="0 0 34 34" fill="none" xmlns="http://www.w3.org/2000/svg">
    <path fill-rule="evenodd" clip-rule="evenodd" d="M31.8259 25.3182L33.9489 32.4363C34.0681 32.8339 33.9745 33.2656 33.7021 33.5793C33.4297 33.8942 33.0163 34.0474 32.6053 33.9866L23.6317 32.6552C21.595 33.5197 19.3528 34 17 34C7.61782 34 0 26.3822 0 17C0 7.61784 7.61782 0 17 0C26.3821 0 34 7.61784 34 17C34 20.0204 33.2096 22.8584 31.8259 25.3182ZM24.3187 14.5912C25.6611 14.5912 26.7506 15.6807 26.7506 17.0231C26.7506 18.3655 25.6611 19.455 24.3187 19.455C22.9763 19.455 21.8868 18.3655 21.8868 17.0231C21.8868 15.6807 22.9763 14.5912 24.3187 14.5912ZM17.0231 14.5912C18.3655 14.5912 19.455 15.6807 19.455 17.0231C19.455 18.3655 18.3655 19.455 17.0231 19.455C15.6807 19.455 14.5912 18.3655 14.5912 17.0231C14.5912 15.6807 15.6807 14.5912 17.0231 14.5912ZM9.72748 14.5912C11.0699 14.5912 12.1594 15.6807 12.1594 17.0231C12.1594 18.3655 11.0699 19.455 9.72748 19.455C8.38509 19.455 7.29561 18.3655 7.29561 17.0231C7.29561 15.6807 8.38509 14.5912 9.72748 14.5912Z" fill="#F5F5F5"/>
</svg>
