<svg width="67" height="63" viewBox="0 0 67 63" fill="none" xmlns="http://www.w3.org/2000/svg">
    <path d="M18.3189 14.5066C16.2937 13.3573 14.262 12.2078 12.2238 11.0578C11.149 10.4513 10.5067 10.1061 10.297 10.0224C9.54474 9.72209 8.77976 9.609 8.00204 9.68317C7.77994 9.7052 7.27566 9.82122 6.4892 10.0312C6.66324 9.91742 6.83254 9.81388 6.99712 9.72062C12.5606 6.57185 17.9176 3.54792 23.0682 0.648816C25.0213 -0.450462 27.4396 -0.122221 29.0442 1.40113C30.4052 2.69206 30.8826 4.66592 30.2206 6.46023C29.8063 7.58375 29.0224 8.47154 27.8689 9.12362C24.7078 10.9124 21.5244 12.7067 18.3189 14.5066Z" fill="#FF2C25"/>
    <path d="M59.4288 19.2302C58.8383 19.3619 58.464 19.4374 58.3058 19.4566C57.2524 19.5854 56.2335 19.3741 55.249 18.8229C52.7283 17.4134 50.2326 16.012 47.7618 14.6188C44.4361 12.7387 41.1321 10.8738 37.8496 9.02402C37.6533 8.91378 37.4193 8.73768 37.1475 8.49574C34.5577 6.18947 35.1049 2.00866 38.2298 0.527011C39.6897 -0.165535 41.1614 -0.175524 42.6448 0.497045C42.9422 0.631707 43.2674 0.799294 43.6205 0.999807C49.2001 4.1577 54.7238 7.27786 60.1913 10.3603C61.5824 11.1449 62.5735 12.5622 62.6878 14.1693C62.8537 16.4911 61.5615 18.3945 59.4288 19.2302Z" fill="#01A050"/>
    <path d="M18.257 14.4001C21.531 16.2498 24.7969 18.101 28.0548 19.9536C28.8023 20.3789 29.3831 20.9436 29.7971 21.6477C30.6792 23.1483 30.7491 24.6885 30.0066 26.2682C29.7082 26.9035 29.2781 27.4412 28.7164 27.8813C27.0125 29.2159 24.8554 29.3856 22.9573 28.3084C17.4583 25.1895 11.9113 22.0574 6.3165 18.9119C5.5814 18.4985 5.07707 18.1568 4.8035 17.8869C3.43314 16.5323 2.93722 14.5754 3.62075 12.7371C4.11082 11.4184 5.02879 10.4703 6.37466 9.89265C7.16462 9.68113 7.67115 9.56427 7.89424 9.54209C8.67542 9.46739 9.44381 9.58129 10.1994 9.88378C10.4101 9.96809 11.0552 10.3157 12.1348 10.9266C14.1821 12.0848 16.2229 13.2426 18.257 14.4001Z" fill="#2685FB"/>
    <path d="M47.8214 14.5066C50.3008 15.8891 52.8051 17.2797 55.3345 18.6784C56.3224 19.2254 57.3449 19.435 58.4019 19.3073C58.5607 19.2882 58.9363 19.2133 59.5287 19.0826C59.3001 19.2478 59.0642 19.3983 58.8209 19.5342C53.6541 22.4196 48.6638 25.2049 43.8499 27.8899C42.923 28.4068 42.2673 28.7185 41.8829 28.825C38.2223 29.8426 34.5616 26.5771 35.7205 22.7886C35.9645 21.9912 36.3978 21.2985 37.0204 20.7104C37.2975 20.4483 37.8933 20.061 38.8077 19.5485C41.7965 17.873 44.8011 16.1924 47.8214 14.5066Z" fill="#FFBA02"/>
    <path d="M8.25 57.3368C6.925 57.3368 5.72917 56.9868 4.6625 56.2868C3.59583 55.5868 2.74583 54.6118 2.1125 53.3618C1.4875 52.1035 1.175 50.6368 1.175 48.9618C1.175 47.6368 1.36667 46.4493 1.75 45.3993C2.14167 44.3493 2.68333 43.4535 3.375 42.7118C4.06667 41.9701 4.87917 41.4076 5.8125 41.0243C6.74583 40.6326 7.75833 40.4368 8.85 40.4368C10.3667 40.4368 11.6375 40.766 12.6625 41.4243C13.6958 42.0826 14.5 43.1201 15.075 44.5368L12.05 45.2368C11.625 44.5451 11.1333 44.0201 10.575 43.6618C10.025 43.2951 9.4 43.1118 8.7 43.1118C7.9 43.1118 7.17083 43.3493 6.5125 43.8243C5.85417 44.291 5.32917 44.9618 4.9375 45.8368C4.54583 46.7118 4.35 47.7535 4.35 48.9618C4.35 50.0951 4.52083 51.0868 4.8625 51.9368C5.2125 52.7868 5.7 53.4493 6.325 53.9243C6.95 54.3993 7.675 54.6368 8.5 54.6368C9.2 54.6368 9.825 54.4826 10.375 54.1743C10.9333 53.8576 11.3708 53.4076 11.6875 52.8243C12.0125 52.241 12.175 51.5368 12.175 50.7118H12.825C12.825 52.0618 12.6625 53.2326 12.3375 54.2243C12.0208 55.216 11.525 55.9826 10.85 56.5243C10.175 57.066 9.30833 57.3368 8.25 57.3368ZM12.6 56.9868L12.175 53.4118V50.6118L8.525 50.5368V48.6618H15V56.9868H12.6Z" fill="#FF2C25"/>
    <path d="M19.2439 40.7618H24.4939C26.1439 40.7618 27.5898 41.0951 28.8314 41.7618C30.0731 42.4201 31.0398 43.3576 31.7314 44.5743C32.4231 45.791 32.7689 47.2285 32.7689 48.8868C32.7689 50.5285 32.4231 51.9576 31.7314 53.1743C31.0398 54.3826 30.0731 55.3201 28.8314 55.9868C27.5898 56.6535 26.1439 56.9868 24.4939 56.9868H19.2439V40.7618ZM22.1939 43.4368V54.3368H24.4939C25.5439 54.3368 26.4481 54.0993 27.2064 53.6243C27.9731 53.1493 28.5606 52.5035 28.9689 51.6868C29.3856 50.8618 29.5939 49.9285 29.5939 48.8868C29.5939 47.8285 29.3856 46.891 28.9689 46.0743C28.5606 45.2576 27.9731 44.616 27.2064 44.1493C26.4481 43.6743 25.5439 43.4368 24.4939 43.4368H22.1939Z" fill="#2685FB"/>
    <path d="M42.057 57.3368C40.932 57.3368 39.8945 57.141 38.9445 56.7493C38.0029 56.3576 37.2362 55.7618 36.6445 54.9618C36.0612 54.1618 35.7487 53.1451 35.707 51.9118H38.607C38.607 52.5368 38.7612 53.0493 39.0695 53.4493C39.3779 53.8493 39.7904 54.1493 40.307 54.3493C40.832 54.541 41.407 54.6368 42.032 54.6368C42.632 54.6368 43.1654 54.5576 43.632 54.3993C44.107 54.241 44.4779 54.016 44.7445 53.7243C45.0195 53.4243 45.157 53.0701 45.157 52.6618C45.157 52.1201 44.9904 51.6951 44.657 51.3868C44.332 51.0785 43.807 50.7951 43.082 50.5368L39.882 49.2618C38.632 48.7701 37.6737 48.1993 37.007 47.5493C36.3404 46.8993 36.007 46.0035 36.007 44.8618C36.007 43.5451 36.5279 42.4785 37.5695 41.6618C38.6112 40.8451 40.0654 40.4368 41.932 40.4368C43.7487 40.4368 45.1529 40.8618 46.1445 41.7118C47.1362 42.5535 47.6987 43.7285 47.832 45.2368H44.932C44.8237 44.5951 44.532 44.0826 44.057 43.6993C43.582 43.3076 42.8737 43.1118 41.932 43.1118C41.0987 43.1118 40.4404 43.2868 39.957 43.6368C39.4737 43.9785 39.232 44.4118 39.232 44.9368C39.232 45.3868 39.382 45.7451 39.682 46.0118C39.9904 46.2701 40.4654 46.5201 41.107 46.7618L44.657 48.1368C45.857 48.6035 46.7779 49.191 47.4195 49.8993C48.0612 50.6076 48.382 51.4951 48.382 52.5618C48.382 53.5368 48.1362 54.3826 47.6445 55.0993C47.1529 55.8076 46.4362 56.3576 45.4945 56.7493C44.5529 57.141 43.407 57.3368 42.057 57.3368Z" fill="#01A050"/>
    <path d="M58.2494 57.3368C56.8244 57.3368 55.5827 56.9993 54.5244 56.3243C53.4744 55.641 52.6577 54.666 52.0744 53.3993C51.4911 52.1326 51.1994 50.6118 51.1994 48.8368C51.1994 47.0035 51.4994 45.466 52.0994 44.2243C52.7077 42.9743 53.5411 42.0326 54.5994 41.3993C55.6661 40.7576 56.8827 40.4368 58.2494 40.4368C60.1411 40.4368 61.6161 40.8951 62.6744 41.8118C63.7411 42.7285 64.4244 43.9201 64.7244 45.3868L61.5744 45.9618C61.3161 45.1118 60.9036 44.4243 60.3369 43.8993C59.7702 43.3743 59.0744 43.1118 58.2494 43.1118C57.5244 43.1118 56.8702 43.3243 56.2869 43.7493C55.7036 44.166 55.2369 44.7993 54.8869 45.6493C54.5452 46.4993 54.3744 47.5618 54.3744 48.8368C54.3744 50.0368 54.5244 51.0701 54.8244 51.9368C55.1327 52.8035 55.5744 53.4701 56.1494 53.9368C56.7244 54.4035 57.4244 54.6368 58.2494 54.6368C59.3077 54.6368 60.1244 54.3576 60.6994 53.7993C61.2827 53.2326 61.5744 52.5118 61.5744 51.6368H64.7244C64.7244 52.8451 64.4619 53.8743 63.9369 54.7243C63.4202 55.566 62.6786 56.2118 61.7119 56.6618C60.7452 57.1118 59.5911 57.3368 58.2494 57.3368Z" fill="#FFBA02"/>
</svg>
